<?xml version="1.0" encoding="UTF-8" standalone="no"?>
<!DOCTYPE svg PUBLIC "-//W3C//DTD SVG 1.1//EN" "http://www.w3.org/Graphics/SVG/1.1/DTD/svg11.dtd">
<svg width="100%" height="100%" viewBox="0 0 175 198" version="1.1" xmlns="http://www.w3.org/2000/svg" xmlns:xlink="http://www.w3.org/1999/xlink" xml:space="preserve" xmlns:serif="http://www.serif.com/" style="fill-rule:evenodd;clip-rule:evenodd;stroke-linecap:round;stroke-linejoin:round;stroke-miterlimit:1.5;">
    <g transform="matrix(1,0,0,1,-363,-13)">
        <g id="ArtBoard2" transform="matrix(1,0,0,1,-0.66586,0)">
            <rect x="305.666" y="0" width="283.424" height="228.409" style="fill:none;"/>
            <g transform="matrix(0.641633,0.767011,-0.767011,0.641633,347.07,-308.037)">
                <rect x="463.229" y="183.722" width="46.578" height="21.548" style="fill:url(#_Radial1);"/>
            </g>
            <g transform="matrix(0.943573,0.331163,-0.331163,0.943573,387.802,-235.542)">
                <text x="249.58px" y="350.221px" style="font-family:'ComicSansMS', 'Comic Sans MS', cursive;font-size:7px;fill:rgb(198,198,198);">935</text>
            </g>
            <g transform="matrix(0.943573,0.331163,-0.331163,0.943573,391.403,-224.2)">
                <text x="249.58px" y="350.221px" style="font-family:'ComicSansMS', 'Comic Sans MS', cursive;font-size:7px;fill:rgb(198,198,198);">938</text>
            </g>
            <g transform="matrix(0.531268,0.847204,-0.847204,0.531268,661.409,-213.274)">
                <text x="249.58px" y="350.221px" style="font-family:'ComicSansMS', 'Comic Sans MS', cursive;font-size:7px;fill:rgb(198,198,198);">941</text>
            </g>
            <g transform="matrix(-0.767011,0.641633,-0.641633,-0.767011,899.667,23.1037)">
                <rect x="463.229" y="183.722" width="46.578" height="21.548" style="fill:url(#_Radial2);"/>
            </g>
            <g transform="matrix(0.239162,-0.97098,0.97098,0.239162,7.29851,344.07)">
                <text x="249.58px" y="350.221px" style="font-family:'ComicSansMS', 'Comic Sans MS', cursive;font-size:7px;fill:rgb(198,198,198);">7</text>
            </g>
            <g transform="matrix(-0.171232,-0.985231,0.985231,-0.171232,96.8251,498.628)">
                <text x="249.58px" y="350.221px" style="font-family:'ComicSansMS', 'Comic Sans MS', cursive;font-size:7px;fill:rgb(198,198,198);">0</text>
            </g>
            <g transform="matrix(0.577294,-0.816536,0.816536,0.577294,-41.9821,197.132)">
                <text x="249.58px" y="350.221px" style="font-family:'ComicSansMS', 'Comic Sans MS', cursive;font-size:7px;fill:rgb(198,198,198);">12</text>
            </g>
            <g transform="matrix(1,0,0,1,4.72564,14.354)">
                <path d="M413.634,163.801C405.248,161.602 389.479,161.209 379.5,143.911C370.502,128.313 371.578,112.946 373.599,95.919C374.382,89.314 374.618,82.059 377.884,76.096C383.583,65.69 407.62,56.312 411.998,48.612C412.861,47.093 417.608,51.764 416.198,49.786C415.817,49.251 431.483,35.754 442.201,36.853C447.293,37.375 452.186,39.294 456.802,41.412C467.631,46.381 479.033,53.939 486.304,63.629C496.269,76.909 500.929,93.502 505.912,109.085C509.323,119.753 516.533,129.21 511.19,140.949C505.629,153.165 493.791,160.58 481.91,165.675C459.366,175.34 457.721,188.217 434.881,178.265C430.173,176.214 417.989,166.484 413.634,163.801Z" style="fill:rgb(226,240,242);stroke:black;stroke-width:0.65px;"/>
            </g>
            <g transform="matrix(1,0,0,1,341.681,13.8374)">
                <path d="M104.226,33.365L113.521,35.204L104.262,37.247" style="fill:none;stroke:black;stroke-width:0.4px;"/>
            </g>
            <g transform="matrix(0.983168,0.182704,-0.182704,0.983168,350.205,-8.7498)">
                <path d="M104.226,33.365L113.521,35.204L104.262,37.247" style="fill:none;stroke:black;stroke-width:0.4px;"/>
            </g>
            <g transform="matrix(0.883404,0.444588,-0.500919,0.995335,373.154,-40.3145)">
                <path d="M104.226,33.365L113.521,35.204L104.262,37.247" style="fill:none;stroke:black;stroke-width:0.38px;"/>
            </g>
            <g transform="matrix(0.883404,0.444588,-0.500919,0.995335,375.098,-44.1805)">
                <path d="M104.226,33.365L113.521,35.204L104.262,37.247" style="fill:none;stroke:black;stroke-width:0.38px;"/>
            </g>
            <g transform="matrix(0.944199,0.475184,-0.347794,0.691073,365.107,-39.7543)">
                <path d="M104.226,33.365L113.521,35.204L104.262,37.247" style="fill:none;stroke:black;stroke-width:0.43px;"/>
            </g>
            <g transform="matrix(0.864837,0.607756,-0.444826,0.632987,378.254,-54.0301)">
                <path d="M104.226,33.365L113.521,35.204L104.262,37.247" style="fill:none;stroke:black;stroke-width:0.43px;"/>
            </g>
            <g transform="matrix(0.747854,0.747011,-0.882836,0.883832,408.294,-80.5495)">
                <path d="M104.226,33.365L113.521,35.204L104.262,37.247" style="fill:none;stroke:black;stroke-width:0.35px;"/>
            </g>
            <g transform="matrix(0.636766,0.843706,-0.997112,0.752546,427.554,-89.4413)">
                <path d="M104.226,33.365L113.521,35.204L104.262,37.247" style="fill:none;stroke:black;stroke-width:0.35px;"/>
            </g>
            <g transform="matrix(1,0,0,1,0.66586,0)">
                <circle cx="464.072" cy="26.797" r="6.032" style="fill:white;stroke:black;stroke-width:0.4px;"/>
            </g>
            <g transform="matrix(0.711268,-0.158804,0.283237,1.26859,120.318,57.3378)">
                <path d="M461.464,85.316L423.907,85.316L433.296,61.428L452.075,61.428L461.464,85.316Z"/>
            </g>
            <g transform="matrix(1,0,0,1,0.66586,0)">
                <ellipse cx="441.58" cy="65.96" rx="3.661" ry="2.486" style="stroke:black;stroke-width:0.95px;"/>
            </g>
            <g transform="matrix(1,0,0,1,0.66586,0)">
                <ellipse cx="461.056" cy="60.95" rx="3.016" ry="2.525" style="stroke:black;stroke-width:0.95px;"/>
            </g>
            <g transform="matrix(1,0,0,1,0.66586,0)">
                <path d="M423.864,123.647L443.208,123.647L452.157,106.89" style="fill:none;stroke:black;stroke-width:0.65px;"/>
            </g>
            <g transform="matrix(0.477771,0.878484,-0.990307,0.538587,368.631,-379.14)">
                <path d="M483.451,128.232L494.839,115.269L485.478,95.29" style="fill:none;stroke:black;stroke-width:0.61px;"/>
            </g>
        </g>
    </g>
    <defs>
        <radialGradient id="_Radial1" cx="0" cy="0" r="1" gradientUnits="userSpaceOnUse" gradientTransform="matrix(46.5785,0,0,21.5479,463.229,194.496)"><stop offset="0" style="stop-color:rgb(153,153,153);stop-opacity:1"/><stop offset="0.51" style="stop-color:rgb(229,229,229);stop-opacity:1"/><stop offset="1" style="stop-color:white;stop-opacity:1"/></radialGradient>
        <radialGradient id="_Radial2" cx="0" cy="0" r="1" gradientUnits="userSpaceOnUse" gradientTransform="matrix(46.5785,0,0,21.5479,463.229,194.496)"><stop offset="0" style="stop-color:rgb(153,153,153);stop-opacity:1"/><stop offset="0.51" style="stop-color:rgb(229,229,229);stop-opacity:1"/><stop offset="1" style="stop-color:white;stop-opacity:1"/></radialGradient>
    </defs>
</svg>
