<svg version="1" xmlns="http://www.w3.org/2000/svg" width="933.333" height="933.333" viewBox="0 0 700.000000 700.000000"><path d="M548.5 169.7c-48.6 5.4-81.6 32-90.6 72.9-.7 3.2-1.3 6.1-1.4 6.4-.7 2.6-1.7 13.2-1.9 20.2-.1 4.8-.4 9-.7 9.2-.4.4-12.4 1.1-37.9 2.2-10.4.4-24.6 1.1-27.1 1.3-.4.1-.7 12.5-.7 27.6V337l33.1.2 33.2.3V530H529V337h86.5v-58l-7-.1h-43.2l-36.3-.1v-7.3c0-33.3 19.1-46.9 60.5-43.1 12.2 1.2 27.2 4.3 34.7 7.3 2.1.8 4.1 1.4 4.3 1.2.3-.4 11.7-42.9 13.5-50.7 1-3.9 1-3.9-14.5-8.2-13.3-3.8-24.6-6-40-7.9-6.6-.9-32.5-1.1-39-.4zM144 212.7c0 .5-.4 3.5-.9 6.8-1.2 7.5-1.6 10-4.7 31-1.3 9.3-2.7 19.4-3.1 22.3-.3 3-1.1 5.5-1.7 5.7-.6.2-7.2.6-14.6 1-7.4.3-17.8.8-23 1.1-5.2.2-13.8.6-19 .8l-9.5.4v26.3c-.1 14.5.1 27 .3 27.6.3 1 7.6 1.3 31.8 1.3H131l.1 51.2c0 28.2.2 52.8.4 54.7 3.2 31.1 12.4 52.7 29.2 68.1 18.5 17.1 42.8 24.7 78.6 24.8 17.9 0 28.6-1 46.2-4.4 8-1.5 34.7-8.3 35.4-8.9.5-.5-12-51.8-12.9-52.8-.3-.4-3.3.1-6.6 1.2-15.4 4.9-27 6.6-44.9 6.5-29.2-.3-42.7-9-49.1-31.9-1.4-5.2-1.7-13-1.9-57.3l-.2-51.2H311.6l.1-29v-29l-6.1-.1H205.3l.1-31.7c.1-17.4 0-32.5-.2-33.5-.4-1.6-2.7-1.7-30.8-1.7-16.7 0-30.4.3-30.4.7z"/></svg>