<svg xmlns="http://www.w3.org/2000/svg" width="270" height="270" style="isolation:isolate"><defs><clipPath id="a"><path d="M0 0h270v270H0z"/></clipPath></defs><g clip-path="url(#a)"><path d="M57 164.2c0 25.4 11 42.6 41.8 42.6 12.5 0 23-2.8 31.6-5.3l-5-20.7c-5.7 2-12 3.5-19.4 3.5-14 0-20.3-5.6-20.3-20.3v-34h41v-22.4h-41V81.8H62.1l-3.7 25.8-25.8 1.1V130H57v34.2zm184.5-93.8a92.3 92.3 0 0 0-29.3-5.2c-30.3 0-43.4 17.5-43.4 39.8v2.6l-25.6 1.1V130h25.6v74.4h28.7V130H231v-22.4h-33.4v-2.8c0-11.7 5.9-17 18.2-17 7.4 0 14.2 1.4 20.3 3.7l5.5-21z"/></g></svg>